<svg width="56.25" height="56.25" viewBox="0 0 870 870" fill="none" xmlns="http://www.w3.org/2000/svg">
<mask id="mask0_349_10" style="mask-type:luminance" maskUnits="userSpaceOnUse" x="314" y="127" width="240" height="432">
<path d="M314.416 127H553.216V558.815H314.416V127Z" fill="white"/>
</mask>
<g mask="url(#mask0_349_10)">
<path d="M492.815 260.666V529.547L552.697 498.337V233.334L492.815 260.666ZM404.086 544.591L427.266 556.676C428.886 557.518 431.418 558.023 434.027 558.023C436.636 558.023 439.161 557.518 440.788 556.676L463.961 544.591V127.084L404.086 154.416V544.591ZM315.349 498.337L375.232 529.547V233.334L315.349 260.666V498.337Z" fill="white"/>
</g>
<path d="M471.332 420.668L485.451 428.025V398.862L472.174 391.94C471.901 391.793 471.613 391.666 471.332 391.526V420.668Z" fill="white"/>
<path d="M612.278 464.966L560.069 437.76V466.93L584.301 479.554C589.891 482.472 589.891 487.248 584.301 490.159L444.197 563.192C438.6 566.109 429.447 566.109 423.85 563.192L283.753 490.159C278.163 487.248 278.163 482.472 283.753 479.554L307.985 466.93V437.76L255.775 464.966C234.742 475.935 234.742 493.785 255.775 504.74L395.873 577.773C416.914 588.742 451.14 588.742 472.174 577.773L612.278 504.74C633.312 493.778 633.312 475.935 612.278 464.966Z" fill="white"/>
<path d="M382.603 428.025L396.714 420.668V391.526C396.434 391.666 396.153 391.793 395.873 391.94L382.603 398.862V428.025Z" fill="white"/>
<path d="M221.267 716V633.5H246.967C252.334 633.5 257.05 634.433 261.117 636.3C265.217 638.167 268.417 640.9 270.717 644.5C273.017 648.1 274.167 652.55 274.167 657.85C274.167 663.083 273.017 667.6 270.717 671.4C268.417 675.167 265.217 678.083 261.117 680.15C257.05 682.183 252.334 683.2 246.967 683.2H234.367V716H221.267ZM234.367 672.6H243.117C246.417 672.6 249.367 672.067 251.967 671C254.6 669.933 256.684 668.35 258.217 666.25C259.75 664.117 260.517 661.433 260.517 658.2C260.517 654.967 259.75 652.3 258.217 650.2C256.684 648.1 254.6 646.55 251.967 645.55C249.367 644.517 246.417 644 243.117 644H234.367V672.6Z" fill="white"/>
<path d="M326.089 717.6C320.322 717.6 314.922 716.5 309.889 714.3C304.855 712.1 300.439 709.05 296.639 705.15C292.839 701.217 289.855 696.667 287.689 691.5C285.555 686.3 284.489 680.733 284.489 674.8C284.489 668.833 285.555 663.267 287.689 658.1C289.855 652.933 292.839 648.4 296.639 644.5C300.439 640.567 304.855 637.5 309.889 635.3C314.922 633.1 320.322 632 326.089 632C331.855 632 337.255 633.1 342.289 635.3C347.322 637.5 351.739 640.567 355.539 644.5C359.339 648.4 362.305 652.933 364.439 658.1C366.605 663.267 367.689 668.833 367.689 674.8C367.689 680.733 366.605 686.3 364.439 691.5C362.305 696.667 359.339 701.217 355.539 705.15C351.739 709.05 347.322 712.1 342.289 714.3C337.255 716.5 331.855 717.6 326.089 717.6ZM326.089 705C330.022 705 333.655 704.25 336.989 702.75C340.355 701.217 343.272 699.1 345.739 696.4C348.239 693.667 350.172 690.467 351.539 686.8C352.905 683.133 353.589 679.133 353.589 674.8C353.589 670.467 352.905 666.467 351.539 662.8C350.172 659.133 348.239 655.95 345.739 653.25C343.272 650.517 340.355 648.4 336.989 646.9C333.655 645.367 330.022 644.6 326.089 644.6C322.189 644.6 318.555 645.367 315.189 646.9C311.855 648.4 308.939 650.517 306.439 653.25C303.972 655.95 302.055 659.133 300.689 662.8C299.322 666.467 298.639 670.467 298.639 674.8C298.639 679.133 299.322 683.133 300.689 686.8C302.055 690.467 303.972 693.667 306.439 696.4C308.939 699.1 311.855 701.217 315.189 702.75C318.555 704.25 322.189 705 326.089 705Z" fill="white"/>
<path d="M385.185 716V633.5H398.285V704.5H429.785V716H385.185Z" fill="white"/>
<path d="M444.048 716V633.5H465.248C471.115 633.5 476.565 634.55 481.598 636.65C486.631 638.75 491.031 641.683 494.798 645.45C498.598 649.183 501.548 653.567 503.648 658.6C505.781 663.6 506.848 669 506.848 674.8C506.848 680.6 505.798 686 503.698 691C501.598 696 498.648 700.383 494.848 704.15C491.081 707.883 486.665 710.8 481.598 712.9C476.565 714.967 471.115 716 465.248 716H444.048ZM457.148 704.25H463.848C467.981 704.25 471.798 703.517 475.298 702.05C478.831 700.583 481.898 698.517 484.498 695.85C487.131 693.183 489.165 690.067 490.598 686.5C492.065 682.9 492.798 678.983 492.798 674.75C492.798 670.55 492.065 666.65 490.598 663.05C489.165 659.45 487.131 656.333 484.498 653.7C481.898 651.033 478.831 648.967 475.298 647.5C471.798 646 467.981 645.25 463.848 645.25H457.148V704.25Z" fill="white"/>
<path d="M524.103 716V633.5H568.453V645H537.203V668.9H567.253V680.4H537.203V704.5H568.453V716H524.103Z" fill="white"/>
<path d="M579.278 716L612.128 633.5H624.278L657.178 716H643.078L634.978 694.5H601.478L593.328 716H579.278ZM605.928 683H630.528L618.178 651.1L605.928 683Z" fill="white"/>
</svg>
